<?xml version="1.0" encoding="UTF-8"?>
<svg version="1.1" xmlns="http://www.w3.org/2000/svg" width="1845" height="1803">
<path d="M0 0 C4.35743572 0.0045866 8.71482984 0.0045341 13.07226562 0 C26.30339364 -0.01358938 39.53324414 0.01495743 52.76403046 0.11371994 C55.16393615 0.12935996 57.56373712 0.13765195 59.96368408 0.14334106 C63.80821443 0.15491761 67.65092261 0.21296693 71.49487305 0.28271484 C72.54547409 0.28218109 73.59607513 0.28164734 74.67851257 0.28109741 C79.2966559 0.40926642 82.36217178 0.62534608 85.86767578 3.80249023 C89.22411989 7.93110702 89.22411989 7.93110702 90.3659668 10.41162109 C92.32820718 14.29564329 94.81476995 17.46670661 97.5690918 20.81787109 C98.49772007 21.99140507 99.42342926 23.16725395 100.34643555 24.34521484 C100.82580566 24.95478027 101.30517578 25.5643457 101.79907227 26.19238281 C106.39382167 32.0505776 110.95321918 37.93649994 115.52075195 43.81591797 C118.45208542 47.58852743 121.38568377 51.35937464 124.3190918 55.13037109 C125.48576974 56.63036233 126.65243639 58.13036233 127.8190918 59.63037109 C128.6853418 60.74412109 128.6853418 60.74412109 129.5690918 61.88037109 C135.98575846 70.13037109 142.40242513 78.38037109 148.8190918 86.63037109 C149.68630859 87.74532959 149.68630859 87.74532959 150.57104492 88.8828125 C151.73129142 90.37460429 152.89144847 91.86646566 154.05151367 93.35839844 C157.06565863 97.23457529 160.08160357 101.10933256 163.1003418 104.98193359 C163.72295898 105.78115234 164.34557617 106.58037109 164.98706055 107.40380859 C166.16616398 108.91728464 167.34580826 110.43033956 168.52612305 111.94287109 C172.17815976 116.63212109 175.76907427 121.36343315 179.3190918 126.13037109 C183.33432585 122.2630278 186.88379579 118.15526535 190.3815918 113.81787109 C190.94740967 113.11927979 191.51322754 112.42068848 192.09619141 111.70092773 C196.48167698 106.25096244 200.69717585 100.68747724 204.86376953 95.06933594 C208.78122803 89.80176372 212.84459806 84.66729531 216.96435547 79.55712891 C220.50102003 75.16646812 223.96559609 70.72985693 227.39208984 66.25244141 C235.55218286 55.59159671 243.82227492 45.01465889 252.12866211 34.4675293 C256.51140368 28.89772842 260.85788192 23.2998372 265.19799805 17.69677734 C266.28073946 16.3014134 267.3724524 14.91294969 268.47439575 13.53269958 C270.35512641 11.14379589 270.35512641 11.14379589 272.01681519 8.55018616 C276.77587372 1.70163445 276.77587372 1.70163445 280.74671936 0.23171997 C283.67740895 -0.09238724 286.46170612 -0.08725588 289.40893555 0.01708984 C291.13296852 0.01523933 291.13296852 0.01523933 292.89183044 0.01335144 C295.53636802 0.01425271 298.17511934 0.03377877 300.81878662 0.0770874 C305.76012 0.14930397 310.69849718 0.10390471 315.63989258 0.0546875 C327.72057275 -0.05530975 339.80048213 -0.06381003 351.8815918 -0.05712891 C352.96229321 -0.05686203 354.04299461 -0.05659515 355.15644455 -0.05632019 C393.24758066 -0.04453115 431.26262126 0.39405039 469.3190918 2.13037109 C470.38444908 2.17885067 470.38444908 2.17885067 471.47132874 2.22830963 C550.82468025 5.85654074 630.01616031 12.15703583 996.0144043 90.38427734 C997.21339355 90.84261963 998.41238281 91.30096191 999.64770508 91.77319336 C1002.3190918 93.13037109 1002.3190918 93.13037109 1003.3190918 96.13037109 C993.60400747 115.92279712 974.2350158 134.39085913 957.0690918 147.93896484 C954.60506391 149.90248706 952.22008484 151.93494332 949.8449707 154.00439453 C926.15929698 174.52275559 898.5079634 191.69243486 871.3190918 207.13037109 C869.86327756 207.97006737 868.40754505 208.80990536 866.9519043 209.64990234 C795.4044362 250.52948288 795.4044362 250.52948288 772.3190918 249.13037109 C772.16053711 247.87224609 772.00198242 246.61412109 771.83862305 245.31787109 C767.87997049 215.57392887 756.34590295 191.15013812 732.3190918 172.25537109 C666.05066759 121.56314565 568.88556595 118.01440794 488.59838867 116.47143555 C479.80127001 116.29626892 471.08553766 115.9391483 462.3190918 115.13037109 C462.20119293 116.35327347 462.08329407 117.57617584 461.96182251 118.83613586 C461.28539885 124.89280408 460.15966436 130.8511016 459.03540039 136.83813477 C458.80149062 138.09813703 458.56758085 139.35813929 458.32658291 140.65632343 C457.68048687 144.13612022 457.03033728 147.61514887 456.37948632 151.09405899 C455.67672118 154.85438265 454.97772427 158.61540696 454.27824402 162.37634277 C452.90359403 169.76418171 451.52543727 177.1513624 450.14615422 184.53833759 C448.51358184 193.28272494 446.88478542 202.02781449 445.25605118 210.77291739 C441.29103569 232.06096595 437.31882266 253.34766947 433.3451004 274.63409424 C432.34149052 280.01027065 431.33805333 285.38647928 430.33465576 290.76269531 C424.55204778 321.74565017 418.76703678 352.72815589 412.97827148 383.70996094 C404.27540644 430.28874341 395.58561231 476.86994364 386.90784168 523.45340776 C386.13403016 527.60731801 385.36019577 531.761224 384.58636475 535.91513062 C383.49760355 541.75959566 382.40884562 547.60406131 381.32009006 553.4485274 C381.007466 555.12670002 380.69484155 556.80487257 380.38221669 558.48304504 C379.59776457 562.69399137 378.81331859 566.90493884 378.02888489 571.1158886 C370.53200814 611.36000106 363.02916992 651.60300174 355.52576351 691.8458972 C354.66001019 696.48919241 353.79426939 701.13248995 352.92852783 705.77578735 C350.14690427 720.69466259 347.36525866 735.61353371 344.58355713 750.53239441 C339.74129065 776.50251506 334.89924344 802.47267659 330.05737305 828.44287109 C329.88738981 829.35460461 329.71740657 830.26633812 329.54227233 831.20569992 C327.99752092 839.49123329 326.45277202 847.77676713 324.9080267 856.06230164 C322.5036388 868.95869178 320.0992369 881.85507932 317.69482422 894.75146484 C317.52464614 895.66423754 317.35446805 896.57701023 317.17913306 897.5174427 C316.31959911 902.12766651 315.46006492 906.73789027 314.60053062 911.34811401 C313.05358739 919.64534543 311.50664628 927.94257725 309.959705 936.23980904 C309.10033401 940.84916307 308.2409629 945.45851708 307.3815918 950.06787109 C307.0378418 951.91162109 306.6940918 953.75537109 306.3503418 955.59912109 C271.28792286 1143.6611863 271.28792286 1143.6611863 270.77221727 1146.42724353 C270.42846568 1148.27100207 270.08471409 1150.11476062 269.74096251 1151.95851916 C268.88161189 1156.56776346 268.02226122 1161.17700775 267.16291046 1165.78625202 C265.61574429 1174.08468774 264.06857843 1182.38312352 262.52141428 1190.68155962 C261.66165597 1195.29299617 260.80189739 1199.90443267 259.94213867 1204.51586914 C259.77192168 1205.42885187 259.60170469 1206.34183459 259.42632961 1207.28248346 C257.02588978 1220.15757666 254.625435 1233.03266707 252.22497082 1245.90775573 C250.68342444 1254.17597064 249.14188247 1262.44418637 247.6003418 1270.71240234 C247.3458599 1272.07734215 247.3458599 1272.07734215 247.08623695 1273.4698565 C243.25721422 1294.00722152 239.42825865 1314.54459906 235.59952843 1335.08201861 C235.06510675 1337.94866483 234.53068034 1340.81531017 233.99625301 1343.68195534 C232.39324595 1352.28044665 230.79027403 1360.87894451 229.18746585 1369.4774729 C228.3017617 1374.22896477 227.41602682 1378.9804509 226.53027344 1383.73193359 C226.355445 1384.66977401 226.18061657 1385.60761442 226.00049031 1386.57387424 C223.57179934 1399.60188294 221.14154225 1412.62959864 218.71013892 1425.65710139 C217.1927676 1433.78745758 215.67580433 1441.91788989 214.15893555 1450.04833984 C213.99422154 1450.93115615 213.82950754 1451.81397246 213.6598022 1452.72354078 C209.13148133 1476.9947743 204.62320699 1501.26962605 200.13681304 1525.54864413 C199.08278587 1531.25202285 198.0272325 1536.95511732 196.97055054 1542.65800476 C196.82527503 1543.44206953 196.67999952 1544.2261343 196.53032172 1545.03395861 C195.95337572 1548.14754034 195.37636555 1551.26111014 194.7991364 1554.37463939 C193.14876974 1563.27659455 191.50341097 1572.17943385 189.86749417 1581.08405632 C188.7557304 1587.13302275 187.63523765 1593.18034002 186.51130486 1599.2270565 C186.05657185 1601.68192624 185.60490069 1604.13736535 185.15646553 1606.59339333 C184.55138837 1609.90542957 183.93580658 1613.21533657 183.31738281 1616.52490234 C183.14256378 1617.49669024 182.96774475 1618.46847815 182.78762817 1619.46971416 C182.62230087 1620.342333 182.45697357 1621.21495184 182.28663635 1622.11401367 C182.14698236 1622.87136307 182.00732836 1623.62871246 181.86344242 1624.40901184 C181.68380672 1624.97706039 181.50417101 1625.54510895 181.3190918 1626.13037109 C180.6590918 1626.46037109 179.9990918 1626.79037109 179.3190918 1627.13037109 C175.64909405 1609.98024325 172.3218788 1592.77829326 169.13802505 1575.53199482 C168.46819333 1571.90728255 167.79510012 1568.28317568 167.12239075 1564.65899658 C165.94986104 1558.33998044 164.7790894 1552.02064077 163.60949707 1545.70108032 C161.7113372 1535.44542625 159.80910334 1525.19052984 157.90600586 1514.93579102 C157.66083162 1513.61465913 157.66083162 1513.61465913 157.41070437 1512.26683772 C156.74050694 1508.65549994 156.07029145 1505.04416551 155.40002573 1501.43284041 C154.36562923 1495.85960062 153.331479 1490.28631521 152.29749858 1484.71299821 C144.64995695 1443.49283822 136.96303736 1402.2800398 129.2719903 1361.06797868 C127.17362009 1349.82393977 125.07570233 1338.57981644 122.9777832 1327.33569336 C122.2107571 1323.22472585 121.44372756 1319.11375899 120.67669678 1315.00279236 C120.48693394 1313.98573969 120.2971711 1312.96868702 120.10165787 1311.92081457 C118.95306015 1305.76481956 117.80441689 1299.60883305 116.65573883 1293.45285302 C108.98419507 1252.33957287 101.31804954 1211.225287 93.65327454 1170.11074448 C92.6309699 1164.62701825 91.60864013 1159.14329672 90.58630371 1153.65957642 C90.41763979 1152.75487801 90.24897587 1151.8501796 90.07520092 1150.91806608 C89.73460058 1149.09111618 89.39400021 1147.26416629 89.0533998 1145.4372164 C86.84541712 1133.59378481 84.63745532 1121.75034933 82.42953491 1109.90690613 C77.64683843 1084.25218832 72.86390938 1058.59751389 68.08081055 1032.94287109 C67.91048128 1032.02929211 67.74015202 1031.11571312 67.56466126 1030.17444992 C66.01566266 1021.86623329 64.46666156 1013.55801713 62.9176569 1005.24980164 C60.50954484 992.33369177 58.10144669 979.41757932 55.69335938 966.50146484 C55.52322496 965.58892504 55.35309054 964.67638523 55.17780054 963.7361927 C54.31858449 959.12766651 53.45936867 954.51914027 52.60015297 949.91061401 C51.0533462 941.61409543 49.50653732 933.31757725 47.9597286 925.02105904 C47.10034958 920.41166307 46.24097069 915.80226708 45.3815918 911.19287109 C45.0378418 909.34912109 44.6940918 907.50537109 44.3503418 905.66162109 C9.28783872 717.59910459 9.28783872 717.59910459 8.77221698 714.83349705 C8.42846638 712.98974387 8.08471579 711.14599069 7.74096519 709.30223751 C6.88159925 704.69291116 6.02223335 700.0835848 5.16286755 695.47425842 C3.61588443 687.17680249 2.06890099 678.87934662 0.52191585 670.58189106 C-0.3376032 665.97174903 -1.19712198 661.36160695 -2.05664062 656.75146484 C-2.22681965 655.83868711 -2.39699868 654.92590939 -2.57233465 653.98547173 C-4.97642384 641.0908183 -7.38049806 628.19616209 -9.78456295 615.30150414 C-11.32943508 607.01529249 -12.87431162 598.72908167 -14.41918945 590.44287109 C-14.58915758 589.53121815 -14.75912571 588.6195652 -14.93424439 587.68028641 C-19.77862992 561.69661175 -24.62322975 535.71297707 -29.46801102 509.7293762 C-32.42292881 493.8815062 -35.37777986 478.03362375 -38.33261108 462.18573761 C-39.02183689 458.48915797 -39.71106641 454.79257903 -40.40029907 451.09600067 C-48.04309917 410.10514368 -55.68469742 369.11406333 -63.3218925 328.12216163 C-63.82393902 325.42748701 -64.32599345 322.73281388 -64.82805061 320.03814125 C-70.72841028 288.36934401 -70.72841028 288.36934401 -73.57388306 273.09274292 C-75.39320291 263.32529872 -77.21268832 253.55788538 -79.0324707 243.79052734 C-79.17730479 243.01315145 -79.32213888 242.23577556 -79.47136188 241.43484282 C-83.19824826 221.4318858 -86.93111462 201.43006616 -90.67565155 181.43040466 C-91.31444879 178.01853061 -91.95305708 174.60662123 -92.59161377 171.19470215 C-94.27848519 162.18225311 -95.96589405 153.16990935 -97.65820885 144.15848064 C-98.29920701 140.74354931 -98.93883354 137.32836216 -99.57808304 133.9131031 C-99.86644268 132.37435808 -100.15544275 130.8357329 -100.44514084 129.2972393 C-100.83052168 127.25046035 -101.21375866 125.20329178 -101.59643555 123.15600586 C-101.80795258 122.02945084 -102.0194696 120.90289581 -102.23739624 119.74220276 C-102.6809082 117.13037109 -102.6809082 117.13037109 -102.6809082 115.13037109 C-103.78511108 115.23212646 -103.78511108 115.23212646 -104.91162109 115.3359375 C-113.50905512 116.06872962 -122.07647758 116.31312343 -130.69766235 116.46084595 C-210.63127111 117.93107697 -312.67376447 122.13488956 -376.6809082 176.13037109 C-377.34219727 176.64599609 -378.00348633 177.16162109 -378.68481445 177.69287109 C-400.68329746 195.46942302 -409.04698997 222.1666978 -412.6809082 249.13037109 C-419.69354007 248.56768087 -425.87196346 246.63987095 -432.4934082 244.31787109 C-433.62488281 243.9226123 -434.75635742 243.52735352 -435.92211914 243.12011719 C-478.06706017 228.051762 -517.8902734 205.44845164 -554.6809082 180.13037109 C-555.3610498 179.66276367 -556.04119141 179.19515625 -556.74194336 178.71337891 C-566.11346661 172.24393601 -575.24652345 165.54190356 -584.11254883 158.39453125 C-585.59413663 157.20031244 -587.08263035 156.01467603 -588.5715332 154.82958984 C-594.57461895 150.00139374 -600.27684696 144.91564591 -605.9152832 139.67333984 C-608.10878214 137.65643616 -610.33146935 135.72525497 -612.6184082 133.81787109 C-621.30375856 126.23170408 -628.95371963 117.44524164 -635.8059082 108.19287109 C-636.47940308 107.28988281 -636.47940308 107.28988281 -637.16650391 106.36865234 C-639.98201462 102.46119246 -641.92746989 98.61711032 -643.6809082 94.13037109 C-559.30501252 57.30843416 -465.30543019 40.24867463 -113.5559082 2.38037109 C-112.87744339 2.35041172 -112.19897858 2.32045235 -111.49995422 2.28958511 C-101.56202293 1.85238624 -91.62259252 1.47024307 -81.6809082 1.13037109 C-80.98173656 1.10612312 -80.28256493 1.08187515 -79.56220627 1.0568924 C-53.04170269 0.14335309 -26.53477424 -0.0281241 0 0 Z " fill="#E61735" transform="translate(742.680908203125,175.86962890625)"/>
<path d="M0 0 C3.41253069 -0.00072717 6.8250577 -0.00289162 10.23758745 -0.00549722 C22.30454931 -0.01467208 34.37150036 -0.01884312 46.4384656 -0.01804566 C56.21289651 -0.01751606 65.98728712 -0.02451216 75.76170778 -0.03855348 C140.81761499 -0.12987494 205.77058036 0.47816661 270.784657 2.84157348 C271.50774541 2.86781728 272.23083383 2.89406107 272.97583401 2.92110014 C286.80594092 3.42598207 300.63330597 4.00579341 314.45555544 4.69460082 C315.20348675 4.73170669 315.95141806 4.76881255 316.72201395 4.80704284 C392.58811608 8.60424148 468.37099636 14.24306708 985.81639528 119.16725707 C985.24877278 123.26884673 983.94993548 125.89083219 981.64061403 129.30788207 C980.98319216 130.28789184 980.32577028 131.2679016 979.64842653 132.27760863 C978.94073122 133.31369262 978.23303591 134.3497766 977.50389528 135.41725707 C976.42108278 137.02165648 976.42108278 137.02165648 975.31639528 138.65846801 C970.10883144 146.34768949 964.78527036 153.9507028 959.39842653 161.51491332 C956.56697104 165.50026635 953.85856343 169.56096007 951.16405153 173.63991332 C947.7976398 178.71837697 944.3665012 183.75329454 940.94139528 188.79225707 C940.27390261 189.77798705 939.60640993 190.76371703 938.9186902 191.77931762 C938.28938601 192.70397826 937.66008181 193.62863891 937.01170778 194.58131957 C936.44468142 195.41614867 935.87765505 196.25097777 935.29344606 197.11110473 C933.81639528 199.16725707 933.81639528 199.16725707 931.81639528 201.16725707 C926.84600176 200.80272341 922.42851189 199.51837611 917.73436403 197.90163207 C916.33717385 197.42596796 914.93995567 196.95038606 913.54271364 196.47487426 C912.80697115 196.22201659 912.07122866 195.96915893 911.31319094 195.70863891 C907.26362613 194.32087722 903.2040508 192.96303784 899.14452028 191.60475707 C898.29268663 191.31969298 897.44085299 191.0346289 896.5632062 190.7409265 C793.30309162 156.27456582 686.1182419 133.86250875 192.57420778 85.09694457 C191.7696379 85.07535183 190.96506801 85.05375909 190.13611722 85.03151202 C150.8195702 83.98488028 111.51239765 83.85889921 72.18408495 83.91011894 C65.72662094 83.91765821 59.26921838 83.91493032 52.81175661 83.90651488 C13.38154403 83.85650567 -26.02327811 84.05406305 -65.44141722 85.09694457 C-66.23432685 85.11783236 -67.02723648 85.13872014 -67.84417367 85.16024089 C-150.71725787 87.35836698 -233.52709983 92.12064307 -656.18360472 158.16725707 C-657.16137877 158.41111144 -658.13915281 158.65496581 -659.14655638 158.90620971 C-700.79444377 169.31406624 -741.82535014 181.48797447 -782.53638792 195.10182738 C-783.53314039 195.43299056 -784.52989286 195.76415374 -785.55684996 196.10535216 C-787.41280836 196.72240362 -789.26718071 197.34425621 -791.11956358 197.97195983 C-795.82595003 199.53352781 -800.24898246 200.64503733 -805.18360472 201.16725707 C-811.19227288 192.72020152 -817.17426562 184.26779026 -822.88672972 175.61647582 C-825.96124303 170.97781094 -829.10860089 166.38842496 -832.24610472 161.79225707 C-833.20250853 160.39100585 -833.20250853 160.39100585 -834.17823362 158.96144652 C-835.50113454 157.02374326 -836.82421719 155.08616406 -838.1474719 153.14870238 C-841.55710464 148.15608428 -844.96428661 143.16179603 -848.37110472 138.16725707 C-848.994447 137.25411742 -849.61778929 136.34097777 -850.26002073 135.40016723 C-851.40533529 133.72125271 -852.54849451 132.0408648 -853.68897581 130.35866332 C-854.61266055 129.00436829 -855.54599773 127.65653261 -856.49463987 126.31960082 C-859.18360472 122.48461636 -859.18360472 122.48461636 -859.18360472 119.16725707 C-809.40993182 102.48050717 -759.11600689 87.88282947 -708.18360472 75.16725707 C-707.2910095 74.943786 -706.39841429 74.72031493 -705.47877073 74.49007201 C-610.05235588 50.6334683 -512.61581448 34.33601962 -360.18360472 17.16725707 C-359.16867571 17.06793757 -359.16867571 17.06793757 -358.13324308 16.96661162 C-279.13567936 9.25373879 -199.88083413 4.6748402 -120.55860472 2.04225707 C-119.39643431 2.00355498 -118.2342639 1.9648529 -117.0368762 1.92497802 C-108.41990768 1.6426752 -99.80205177 1.39903836 -91.18360472 1.16725707 C-90.42204038 1.14670253 -89.66047604 1.12614798 -88.87583399 1.10497057 C-59.24810491 0.3117547 -29.63773847 0.00357991 0 0 Z " fill="#E61735" transform="translate(859.1836047172546,-0.16725707054138184)"/>
</svg>
